<?xml version="1.0" encoding="UTF-8"?>
<svg xmlns="http://www.w3.org/2000/svg" xmlns:xlink="http://www.w3.org/1999/xlink" width="443.129" height="244.704" viewBox="0 0 443.129 244.704">
<path fill-rule="nonzero" fill="rgb(19.607544%, 38.038635%, 59.999084%)" fill-opacity="1" stroke-width="11.95532" stroke-linecap="round" stroke-linejoin="round" stroke="rgb(16.07666%, 19.216919%, 23.922729%)" stroke-opacity="1" stroke-miterlimit="10" d="M 0.00034375 -0.00028125 L -311.816062 -0.00028125 L -198.429344 85.038781 Z M 0.00034375 -0.00028125 " transform="matrix(1, 0, 0, -1, 320.777, 235.738)"/>
<path fill-rule="nonzero" fill="rgb(30.979919%, 69.410706%, 63.134766%)" fill-opacity="1" stroke-width="11.95532" stroke-linecap="round" stroke-linejoin="round" stroke="rgb(16.07666%, 19.216919%, 23.922729%)" stroke-opacity="1" stroke-miterlimit="10" d="M 0.00034375 -0.00028125 L -198.429344 85.038781 L -198.429344 198.429406 Z M 0.00034375 -0.00028125 " transform="matrix(1, 0, 0, -1, 320.777, 235.738)"/>
<path fill-rule="nonzero" fill="rgb(98.823547%, 75.292969%, 33.332825%)" fill-opacity="1" stroke-width="11.95532" stroke-linecap="round" stroke-linejoin="round" stroke="rgb(16.07666%, 19.216919%, 23.922729%)" stroke-opacity="1" stroke-miterlimit="10" d="M -198.429344 85.038781 L -198.429344 198.429406 L -283.468406 226.773156 Z M -198.429344 85.038781 " transform="matrix(1, 0, 0, -1, 320.777, 235.738)"/>
<path fill-rule="nonzero" fill="rgb(87.449646%, 43.136597%, 35.68573%)" fill-opacity="1" stroke-width="11.95532" stroke-linecap="round" stroke-linejoin="round" stroke="rgb(16.07666%, 19.216919%, 23.922729%)" stroke-opacity="1" stroke-miterlimit="10" d="M 0.00034375 -0.00028125 L 56.69175 113.386437 L 113.387063 -0.00028125 Z M 0.00034375 -0.00028125 " transform="matrix(1, 0, 0, -1, 320.777, 235.738)"/>
<path fill-rule="nonzero" fill="rgb(92.156982%, 55.291748%, 31.373596%)" fill-opacity="1" stroke-width="11.95532" stroke-linecap="round" stroke-linejoin="round" stroke="rgb(16.07666%, 19.216919%, 23.922729%)" stroke-opacity="1" stroke-miterlimit="10" d="M 0.00034375 -0.00028125 L -113.386375 113.386437 L 113.387063 198.429406 Z M 0.00034375 -0.00028125 " transform="matrix(1, 0, 0, -1, 320.777, 235.738)"/>
</svg>
